<mxfile host="app.diagrams.net" agent="Mozilla/5.0 (Windows NT 10.0; Win64; x64) AppleWebKit/537.36 (KHTML, like Gecko) Chrome/137.0.0.0 Safari/537.36" version="27.1.4" pages="7">
  <diagram name="Page-1" id="91jscVkorQK-JBloRmye">
    <mxGraphModel dx="1426" dy="777" grid="1" gridSize="10" guides="1" tooltips="1" connect="1" arrows="1" fold="1" page="1" pageScale="1" pageWidth="827" pageHeight="1169" math="0" shadow="0">
      <root>
        <mxCell id="0" />
        <mxCell id="1" parent="0" />
        <mxCell id="wind" value="Quạt Gió" style="shape=ellipse;fillColor=#4CAF50;strokeColor=#2E7D32;gradientColor=#81C784;fontColor=#FFFFFF;fontSize=16;" parent="1" vertex="1">
          <mxGeometry x="10" y="60" width="110" height="60" as="geometry" />
        </mxCell>
        <mxCell id="solar" value="Pin Mặt Trời" style="shape=ellipse;fillColor=#FFC107;strokeColor=#FF8F00;gradientColor=#FFD54F;fontColor=#212121;fontSize=16;" parent="1" vertex="1">
          <mxGeometry x="10" y="150" width="110" height="60" as="geometry" />
        </mxCell>
        <mxCell id="hydro" value="Thủy điện" style="shape=ellipse;fillColor=#03A9F4;strokeColor=#0288D1;gradientColor=#4FC3F7;fontColor=#FFFFFF;fontSize=16;" parent="1" vertex="1">
          <mxGeometry x="10" y="250" width="110" height="60" as="geometry" />
        </mxCell>
        <mxCell id="sensor" value="Cảm biến&#xa;Ánh sáng" style="shape=ellipse;fillColor=#FF7043;strokeColor=#E64A19;gradientColor=#FF8A65;fontColor=#FFFFFF;fontSize=16;" parent="1" vertex="1">
          <mxGeometry x="295" y="505" width="90" height="90" as="geometry" />
        </mxCell>
        <mxCell id="esp32" value="ESP8266" style="shape=hexagon;fillColor=#673AB7;strokeColor=#5E35B1;gradientColor=#9575CD;fontColor=#FFFFFF;fontSize=16;" parent="1" vertex="1">
          <mxGeometry x="285" y="375" width="110" height="90" as="geometry" />
        </mxCell>
        <mxCell id="led_solar" value="LED Mặt Trời" style="shape=ellipse;fillColor=#FFF9C4;strokeColor=#FFEE58;gradientColor=#FFFDE7;fontColor=#212121;fontSize=16;" parent="1" vertex="1">
          <mxGeometry x="620" y="520" width="120" height="60" as="geometry" />
        </mxCell>
        <mxCell id="led_city" value="Ánh sáng&#xa;Thành Phố" style="shape=ellipse;fillColor=#E1F5FE;strokeColor=#4FC3F7;gradientColor=#B3E5FC;fontColor=#212121;fontSize=16;" parent="1" vertex="1">
          <mxGeometry y="390" width="120" height="60" as="geometry" />
        </mxCell>
        <mxCell id="firebase" value="CSDL&#xa;Firebase" style="shape=cloud;fillColor=#FFA000;strokeColor=#FF6F00;gradientColor=#FFC107;fontColor=#FFFFFF;fontSize=16;" parent="1" vertex="1">
          <mxGeometry x="280" y="190" width="120" height="80" as="geometry" />
        </mxCell>
        <mxCell id="web" value="Giao diện Web" style="shape=rectangle;rounded=1;fillColor=#E1F5FE;strokeColor=#4FC3F7;gradientColor=#B3E5FC;fontColor=#0277BD;fontSize=18;" parent="1" vertex="1">
          <mxGeometry x="610" y="195" width="140" height="70" as="geometry" />
        </mxCell>
        <mxCell id="day_night" value="Điều khiển ngày đêm" style="shape=rectangle;rounded=1;fillColor=#9E9E9E;strokeColor=#616161;gradientColor=#B0BEC5;fontColor=#FFFFFF;fontSize=16;" parent="1" vertex="1">
          <mxGeometry x="590" y="375" width="180" height="60" as="geometry" />
        </mxCell>
        <mxCell id="conn_city_firebase" value="" style="edgeStyle=none;endArrow=classic;html=1;strokeWidth=2;strokeColor=#2A5CAA;fontSize=12;fontColor=#2A5CAA;exitX=0.5;exitY=1;exitDx=0;exitDy=0;exitPerimeter=0;" parent="1" source="nG6pSHDmTLSfgID_-Cg2-3" target="firebase" edge="1">
          <mxGeometry x="0.0369" y="111" relative="1" as="geometry">
            <mxPoint x="345" y="120" as="sourcePoint" />
            <mxPoint x="460" y="330" as="targetPoint" />
            <mxPoint as="offset" />
          </mxGeometry>
        </mxCell>
        <mxCell id="Bz2pB0bqixxjR13yoHAi-2" value="&lt;font style=&quot;color: rgb(0, 0, 0);&quot;&gt;&lt;span style=&quot;font-size: 17px;&quot;&gt;Năng lượng&lt;/span&gt;&lt;br style=&quot;font-size: 17px;&quot;&gt;&lt;span style=&quot;font-size: 17px;&quot;&gt;tiêu thụ&lt;/span&gt;&lt;/font&gt;" style="edgeLabel;html=1;align=center;verticalAlign=middle;resizable=0;points=[];" parent="conn_city_firebase" vertex="1" connectable="0">
          <mxGeometry x="-0.1664" y="1" relative="1" as="geometry">
            <mxPoint as="offset" />
          </mxGeometry>
        </mxCell>
        <mxCell id="conn_wind_firebase" value="&lt;font style=&quot;font-size: 17px;&quot;&gt;Năng lượng gió&lt;/font&gt;" style="edgeStyle=none;endArrow=classic;html=1;strokeWidth=2;strokeColor=#4CAF50;fontSize=12;fontColor=#4CAF50;exitX=1;exitY=0.5;exitDx=0;exitDy=0;" parent="1" source="wind" target="firebase" edge="1">
          <mxGeometry relative="1" as="geometry" />
        </mxCell>
        <mxCell id="conn_solar_firebase" value="&lt;font style=&quot;font-size: 17px;&quot;&gt;Năng lượng&lt;br&gt;Mặt Trời&lt;/font&gt;" style="edgeStyle=none;endArrow=classic;html=1;strokeWidth=2;strokeColor=#FFC107;fontSize=12;fontColor=#FF8F00;" parent="1" source="solar" target="firebase" edge="1">
          <mxGeometry relative="1" as="geometry" />
        </mxCell>
        <mxCell id="conn_hydro_firebase" value="&lt;font style=&quot;font-size: 17px;&quot;&gt;Năng lượng&lt;br&gt;Thủy Điện&lt;/font&gt;" style="edgeStyle=none;endArrow=classic;html=1;strokeWidth=2;strokeColor=#03A9F4;fontSize=12;fontColor=#0288D1;" parent="1" source="hydro" target="firebase" edge="1">
          <mxGeometry relative="1" as="geometry" />
        </mxCell>
        <mxCell id="conn_led_solar_sensor" value="&lt;font style=&quot;font-size: 17px;&quot;&gt;Trạng thái Mặt trời&lt;/font&gt;" style="edgeStyle=none;endArrow=classic;html=1;strokeWidth=2;strokeColor=#FF7043;fontSize=12;fontColor=#E64A19;" parent="1" source="led_solar" target="sensor" edge="1">
          <mxGeometry relative="1" as="geometry" />
        </mxCell>
        <mxCell id="conn_sensor_esp32" value="&lt;font style=&quot;font-size: 17px;&quot;&gt;Dữ liệu cảm biến&lt;/font&gt;" style="edgeStyle=none;endArrow=classic;html=1;strokeWidth=2;strokeColor=#FF7043;fontSize=12;fontColor=#E64A19;" parent="1" source="sensor" target="esp32" edge="1">
          <mxGeometry relative="1" as="geometry" />
        </mxCell>
        <mxCell id="conn_esp32_led_city" value="&lt;font style=&quot;font-size: 17px;&quot;&gt;ĐIều khiển&lt;br&gt;(ngược)&lt;/font&gt;" style="edgeStyle=none;endArrow=classic;html=1;strokeWidth=2;strokeColor=#673AB7;fontSize=12;fontColor=#5E35B1;" parent="1" source="esp32" target="led_city" edge="1">
          <mxGeometry relative="1" as="geometry" />
        </mxCell>
        <mxCell id="conn_esp32_firebase" value="&lt;font style=&quot;font-size: 17px;&quot;&gt;WIFI&lt;/font&gt;" style="edgeStyle=none;endArrow=classic;html=1;strokeWidth=2;strokeColor=#FFA000;fontSize=12;fontColor=#FF6F00;dashed=1;" parent="1" source="esp32" target="firebase" edge="1">
          <mxGeometry relative="1" as="geometry" />
        </mxCell>
        <mxCell id="conn_firebase_web" value="&lt;font style=&quot;font-size: 17px;&quot;&gt;API&lt;br&gt;Realtime Database&lt;/font&gt;" style="edgeStyle=none;endArrow=classic;html=1;strokeWidth=2;strokeColor=#0277BD;fontSize=12;fontColor=#01579B;" parent="1" source="firebase" target="web" edge="1">
          <mxGeometry relative="1" as="geometry" />
        </mxCell>
        <mxCell id="conn_web_day_night" value="&lt;font style=&quot;font-size: 17px;&quot;&gt;Tín hiệu điều khiển&lt;/font&gt;" style="edgeStyle=none;endArrow=classic;html=1;strokeWidth=2;strokeColor=#0277BD;fontSize=12;fontColor=#01579B;entryX=0.5;entryY=0;entryDx=0;entryDy=0;" parent="1" source="web" target="day_night" edge="1">
          <mxGeometry relative="1" as="geometry">
            <mxPoint x="680" y="390" as="targetPoint" />
          </mxGeometry>
        </mxCell>
        <mxCell id="conn_day_night_led_solar" value="&lt;font style=&quot;font-size: 17px;&quot;&gt;điều khiển&lt;/font&gt;" style="edgeStyle=none;endArrow=classic;html=1;strokeWidth=2;strokeColor=#9E9E9E;fontSize=12;fontColor=#616161;exitX=0.5;exitY=1;exitDx=0;exitDy=0;" parent="1" source="day_night" target="led_solar" edge="1">
          <mxGeometry relative="1" as="geometry">
            <mxPoint x="680" y="450" as="sourcePoint" />
          </mxGeometry>
        </mxCell>
        <mxCell id="nG6pSHDmTLSfgID_-Cg2-3" value="&lt;div&gt;&lt;font style=&quot;font-size: 17px;&quot;&gt;&lt;br&gt;&lt;/font&gt;&lt;/div&gt;&lt;font style=&quot;font-size: 17px;&quot;&gt;Thành Phố&lt;br&gt;(Metro)&lt;/font&gt;" style="strokeWidth=2;html=1;shape=mxgraph.flowchart.database;whiteSpace=wrap;fontSize=16;" parent="1" vertex="1">
          <mxGeometry x="285" y="50" width="115" height="60" as="geometry" />
        </mxCell>
      </root>
    </mxGraphModel>
  </diagram>
  <diagram id="yFIC-wXtEpNA3DT1km8z" name="Page-2">
    <mxGraphModel dx="2253" dy="1946" grid="1" gridSize="10" guides="1" tooltips="1" connect="1" arrows="1" fold="1" page="1" pageScale="1" pageWidth="827" pageHeight="1169" math="0" shadow="0">
      <root>
        <mxCell id="0" />
        <mxCell id="1" parent="0" />
        <mxCell id="CityEnergy" value="CityEnergy" style="shape=rectangle;whiteSpace=wrap;html=1;fillColor=#FFFFFF;strokeColor=#000000;fontColor=#000000;strokeWidth=1;fontSize=16;" vertex="1" parent="1">
          <mxGeometry x="-250" y="-584" width="100" height="30" as="geometry" />
        </mxCell>
        <mxCell id="HydroDevice" value="HydroDevice" style="shape=rectangle;whiteSpace=wrap;html=1;fillColor=#FFFFFF;strokeColor=#000000;fontColor=#000000;strokeWidth=1;fontSize=16;" vertex="1" parent="1">
          <mxGeometry x="-90" y="-140" width="120" height="30" as="geometry" />
        </mxCell>
        <mxCell id="SolarDevice" value="SolarDevice" style="shape=rectangle;whiteSpace=wrap;html=1;fillColor=#FFFFFF;strokeColor=#000000;fontColor=#000000;strokeWidth=1;fontSize=16;" vertex="1" parent="1">
          <mxGeometry x="-90" y="-710" width="110" height="30" as="geometry" />
        </mxCell>
        <mxCell id="WindDevice" value="WindDevice" style="shape=rectangle;whiteSpace=wrap;html=1;fillColor=#FFFFFF;strokeColor=#000000;fontColor=#000000;strokeWidth=1;fontSize=16;" vertex="1" parent="1">
          <mxGeometry x="-90" y="-430" width="110" height="30" as="geometry" />
        </mxCell>
        <mxCell id="TotalConsumption" value="TotalConsumption" style="shape=rectangle;whiteSpace=wrap;html=1;fillColor=#FFFFFF;strokeColor=#000000;fontColor=#000000;strokeWidth=1;fontSize=16;" vertex="1" parent="1">
          <mxGeometry x="720" y="-510" width="150" height="30" as="geometry" />
        </mxCell>
        <mxCell id="HydroHour" value="HydroHour" style="shape=rectangle;whiteSpace=wrap;html=1;fillColor=#FFFFFF;strokeColor=#000000;fontColor=#000000;strokeWidth=1;fontSize=16;" vertex="1" parent="1">
          <mxGeometry x="195" y="-120" width="100" height="30" as="geometry" />
        </mxCell>
        <mxCell id="SolarHour" value="SolarHour" style="shape=rectangle;whiteSpace=wrap;html=1;fillColor=#FFFFFF;strokeColor=#000000;fontColor=#000000;strokeWidth=1;fontSize=16;" vertex="1" parent="1">
          <mxGeometry x="510" y="-660" width="100" height="30" as="geometry" />
        </mxCell>
        <mxCell id="WindHour" value="WindHour" style="shape=rectangle;whiteSpace=wrap;html=1;fillColor=#FFFFFF;strokeColor=#000000;fontColor=#000000;strokeWidth=1;fontSize=16;" vertex="1" parent="1">
          <mxGeometry x="115" y="-394" width="90" height="30" as="geometry" />
        </mxCell>
        <mxCell id="HydroMonth" value="HydroMonth" style="shape=rectangle;whiteSpace=wrap;html=1;fillColor=#FFFFFF;strokeColor=#000000;fontColor=#000000;strokeWidth=1;fontSize=16;" vertex="1" parent="1">
          <mxGeometry x="195" y="-200" width="110" height="30" as="geometry" />
        </mxCell>
        <mxCell id="SolarMonth" value="SolarMonth" style="shape=rectangle;whiteSpace=wrap;html=1;fillColor=#FFFFFF;strokeColor=#000000;fontColor=#000000;strokeWidth=1;fontSize=16;" vertex="1" parent="1">
          <mxGeometry x="330" y="-710" width="110" height="30" as="geometry" />
        </mxCell>
        <mxCell id="WindMonth" value="WindMonth" style="shape=rectangle;whiteSpace=wrap;html=1;fillColor=#FFFFFF;strokeColor=#000000;fontColor=#000000;strokeWidth=1;fontSize=16;" vertex="1" parent="1">
          <mxGeometry x="110" y="-460" width="100" height="30" as="geometry" />
        </mxCell>
        <mxCell id="HydroYear" value="HydroYear" style="shape=rectangle;whiteSpace=wrap;html=1;fillColor=#FFFFFF;strokeColor=#000000;fontColor=#000000;strokeWidth=1;fontSize=16;" vertex="1" parent="1">
          <mxGeometry x="195" y="-290" width="100" height="30" as="geometry" />
        </mxCell>
        <mxCell id="SolarYear" value="SolarYear" style="shape=rectangle;whiteSpace=wrap;html=1;fillColor=#FFFFFF;strokeColor=#000000;fontColor=#000000;strokeWidth=1;fontSize=16;" vertex="1" parent="1">
          <mxGeometry x="185" y="-740" width="90" height="30" as="geometry" />
        </mxCell>
        <mxCell id="WindYear" value="WindYear" style="shape=rectangle;whiteSpace=wrap;html=1;fillColor=#FFFFFF;strokeColor=#000000;fontColor=#000000;strokeWidth=1;fontSize=16;" vertex="1" parent="1">
          <mxGeometry x="110" y="-514" width="90" height="30" as="geometry" />
        </mxCell>
        <mxCell id="CityEnergy_attrs" value="&lt;b&gt;Attributes&lt;/b&gt;&lt;br&gt;day: Integer&lt;br&gt;month: Integer&lt;br&gt;year: Integer&lt;br&gt;production: Integer" style="rounded=0;whiteSpace=wrap;html=1;fillColor=#FFFFFF;strokeColor=#000000;fontColor=#000000;strokeWidth=1;fontSize=16;" vertex="1" parent="1">
          <mxGeometry x="-450" y="-624" width="160" height="110" as="geometry" />
        </mxCell>
        <mxCell id="HydroDevice_attrs" value="&lt;b&gt;Attributes&lt;/b&gt;&lt;br&gt;device_name: String&lt;br&gt;efficiency: String&lt;br&gt;energy_type: String&lt;br&gt;origin: String&lt;br&gt;power: String&lt;br&gt;quantity: String&lt;br&gt;status: String&lt;br&gt;flow_rate: String&lt;br&gt;head_height: String&lt;br&gt;turbine_type: String" style="rounded=0;whiteSpace=wrap;html=1;fillColor=#FFFFFF;strokeColor=#000000;fontColor=#000000;strokeWidth=1;fontSize=16;" vertex="1" parent="1">
          <mxGeometry x="-120" y="-80" width="170" height="220" as="geometry" />
        </mxCell>
        <mxCell id="SolarDevice_attrs" value="&lt;b&gt;Attributes&lt;/b&gt;&lt;br&gt;device_name: String&lt;br&gt;efficiency: String&lt;br&gt;energy_type: String&lt;br&gt;origin: String&lt;br&gt;power: String&lt;br&gt;quantity: String&lt;br&gt;status: String&lt;br&gt;size: String&lt;br&gt;weight: String" style="rounded=0;whiteSpace=wrap;html=1;fillColor=#FFFFFF;strokeColor=#000000;fontColor=#000000;strokeWidth=1;fontSize=16;" vertex="1" parent="1">
          <mxGeometry x="-115" y="-1000" width="170" height="210" as="geometry" />
        </mxCell>
        <mxCell id="WindDevice_attrs" value="&lt;b&gt;Attributes&lt;/b&gt;&lt;br&gt;device_name: String&lt;br&gt;efficiency: String&lt;br&gt;energy_type: String&lt;br&gt;origin: String&lt;br&gt;power: String&lt;br&gt;quantity: String&lt;br&gt;status: String&lt;br&gt;size: String&lt;br&gt;weight: String" style="rounded=0;whiteSpace=wrap;html=1;fillColor=#FFFFFF;strokeColor=#000000;fontColor=#000000;strokeWidth=1;fontSize=16;" vertex="1" parent="1">
          <mxGeometry x="-450" y="-480" width="170" height="210" as="geometry" />
        </mxCell>
        <mxCell id="TotalProduction_attrs" value="&lt;b&gt;Attributes&lt;/b&gt;&lt;br&gt;entity: String&lt;br&gt;hydro_value: Integer&lt;br&gt;solar_value: Integer&lt;br&gt;wind_value: Integer&lt;br&gt;hydro_percentage: String&lt;br&gt;solar_percentage: String&lt;br&gt;wind_percentage: String" style="rounded=0;whiteSpace=wrap;html=1;fillColor=#FFFFFF;strokeColor=#000000;fontColor=#000000;strokeWidth=1;fontSize=16;" vertex="1" parent="1">
          <mxGeometry x="520" y="-400" width="200" height="170" as="geometry" />
        </mxCell>
        <mxCell id="TotalConsumption_attrs" value="&lt;b&gt;Attributes&lt;/b&gt;&lt;br&gt;month: Integer&lt;br&gt;year: Integer&lt;br&gt;totalProduction: Integer" style="rounded=0;whiteSpace=wrap;html=1;fillColor=#FFFFFF;strokeColor=#000000;fontColor=#000000;strokeWidth=1;fontSize=16;" vertex="1" parent="1">
          <mxGeometry x="910" y="-544" width="190" height="90" as="geometry" />
        </mxCell>
        <mxCell id="HydroHour_attrs" value="&lt;b&gt;Attributes&lt;/b&gt;&lt;br&gt;electricity: Integer&lt;br&gt;entity: String&lt;br&gt;hour: Integer&lt;br&gt;month: Integer&lt;br&gt;year: Integer&lt;br&gt;code: String" style="rounded=0;whiteSpace=wrap;html=1;fillColor=#FFFFFF;strokeColor=#000000;fontColor=#000000;strokeWidth=1;fontSize=16;" vertex="1" parent="1">
          <mxGeometry x="165" y="-40" width="150" height="150" as="geometry" />
        </mxCell>
        <mxCell id="SolarHour_attrs" value="&lt;b&gt;Attributes&lt;/b&gt;&lt;br&gt;electricity: Integer&lt;br&gt;entity: String&lt;br&gt;hour: Integer&lt;br&gt;month: Integer&lt;br&gt;year: Integer&lt;br&gt;code: String" style="rounded=0;whiteSpace=wrap;html=1;fillColor=#FFFFFF;strokeColor=#000000;fontColor=#000000;strokeWidth=1;fontSize=16;" vertex="1" parent="1">
          <mxGeometry x="485" y="-1000" width="150" height="150" as="geometry" />
        </mxCell>
        <mxCell id="WindHour_attrs" value="&lt;b&gt;Attributes&lt;/b&gt;&lt;br&gt;electricity: Integer&lt;br&gt;entity: String&lt;br&gt;hour: Integer&lt;br&gt;month: Integer&lt;br&gt;year: Integer&lt;br&gt;code: String" style="rounded=0;whiteSpace=wrap;html=1;fillColor=#FFFFFF;strokeColor=#000000;fontColor=#000000;strokeWidth=1;fontSize=16;" vertex="1" parent="1">
          <mxGeometry x="-105" y="-350" width="150" height="150" as="geometry" />
        </mxCell>
        <mxCell id="HydroMonth_attrs" value="&lt;b&gt;Attributes&lt;/b&gt;&lt;br&gt;electricity: Integer&lt;br&gt;entity: String&lt;br&gt;month: Integer&lt;br&gt;year: Integer&lt;br&gt;code: String" style="rounded=0;whiteSpace=wrap;html=1;fillColor=#FFFFFF;strokeColor=#000000;fontColor=#000000;strokeWidth=1;fontSize=16;" vertex="1" parent="1">
          <mxGeometry x="370" y="-40" width="150" height="130" as="geometry" />
        </mxCell>
        <mxCell id="SolarMonth_attrs" value="&lt;b&gt;Attributes&lt;/b&gt;&lt;br&gt;electricity: Integer&lt;br&gt;entity: String&lt;br&gt;month: Integer&lt;br&gt;year: Integer&lt;br&gt;code: String" style="rounded=0;whiteSpace=wrap;html=1;fillColor=#FFFFFF;strokeColor=#000000;fontColor=#000000;strokeWidth=1;fontSize=16;" vertex="1" parent="1">
          <mxGeometry x="310" y="-1000" width="150" height="130" as="geometry" />
        </mxCell>
        <mxCell id="H4oxrFtyT1Xd3SAC79ui-5" style="edgeStyle=orthogonalEdgeStyle;rounded=0;orthogonalLoop=1;jettySize=auto;html=1;exitX=0.5;exitY=1;exitDx=0;exitDy=0;entryX=1;entryY=0.5;entryDx=0;entryDy=0;dashed=1;" edge="1" parent="1" source="HydroYear_attrs" target="WindMonth">
          <mxGeometry relative="1" as="geometry" />
        </mxCell>
        <mxCell id="HydroYear_attrs" value="&lt;b&gt;Attributes&lt;/b&gt;&lt;br&gt;electricity: Float&lt;br&gt;entity: String&lt;div&gt;month: Interger&lt;br&gt;year: Integer&lt;br&gt;code: String&lt;/div&gt;" style="rounded=0;whiteSpace=wrap;html=1;fillColor=#FFFFFF;strokeColor=#000000;fontColor=#000000;strokeWidth=1;fontSize=16;" vertex="1" parent="1">
          <mxGeometry x="240" y="-654" width="130" height="120" as="geometry" />
        </mxCell>
        <mxCell id="SolarYear_attrs" value="&lt;b&gt;Attributes&lt;/b&gt;&lt;br&gt;electricity: Float&lt;br&gt;entity: String&lt;br&gt;year: Integer&lt;br&gt;code: String" style="rounded=0;whiteSpace=wrap;html=1;fillColor=#FFFFFF;strokeColor=#000000;fontColor=#000000;strokeWidth=1;fontSize=16;" vertex="1" parent="1">
          <mxGeometry x="160" y="-1000" width="130" height="110" as="geometry" />
        </mxCell>
        <mxCell id="WindYear_attrs" value="&lt;b&gt;Attributes&lt;/b&gt;&lt;br&gt;electricity: Float&lt;br&gt;entity: String&lt;br&gt;year: Integer&lt;br&gt;code: String" style="rounded=0;whiteSpace=wrap;html=1;fillColor=#FFFFFF;strokeColor=#000000;fontColor=#000000;strokeWidth=1;fontSize=16;" vertex="1" parent="1">
          <mxGeometry x="90" y="-654" width="130" height="110" as="geometry" />
        </mxCell>
        <mxCell id="CityEnergy_to_HydroDevice" value="" style="edgeStyle=entityRelationEdgeStyle;endArrow=ERoneToMany;html=1;strokeWidth=1;strokeColor=#000000;fontSize=14;" edge="1" parent="1" source="CityEnergy" target="HydroDevice">
          <mxGeometry relative="1" as="geometry" />
        </mxCell>
        <mxCell id="CityEnergy_to_HydroDevice_label" value="1:N" style="edgeLabel;html=1;align=center;verticalAlign=middle;resizable=0;points=[];fontSize=14;" connectable="0" vertex="1" parent="CityEnergy_to_HydroDevice">
          <mxGeometry x="-0.2" y="1" width="50" height="30" relative="1" as="geometry">
            <mxPoint x="-25" y="-15" as="offset" />
          </mxGeometry>
        </mxCell>
        <mxCell id="CityEnergy_to_SolarDevice" value="" style="edgeStyle=entityRelationEdgeStyle;endArrow=ERoneToMany;html=1;strokeWidth=1;strokeColor=#000000;fontSize=14;" edge="1" parent="1" source="CityEnergy" target="SolarDevice">
          <mxGeometry relative="1" as="geometry" />
        </mxCell>
        <mxCell id="CityEnergy_to_SolarDevice_label" value="1:N" style="edgeLabel;html=1;align=center;verticalAlign=middle;resizable=0;points=[];fontSize=14;" connectable="0" vertex="1" parent="CityEnergy_to_SolarDevice">
          <mxGeometry x="-0.2" y="1" width="50" height="30" relative="1" as="geometry">
            <mxPoint x="-25" y="-15" as="offset" />
          </mxGeometry>
        </mxCell>
        <mxCell id="CityEnergy_to_WindDevice" value="" style="edgeStyle=entityRelationEdgeStyle;endArrow=ERoneToMany;html=1;strokeWidth=1;strokeColor=#000000;fontSize=14;" edge="1" parent="1" source="CityEnergy" target="WindDevice">
          <mxGeometry relative="1" as="geometry" />
        </mxCell>
        <mxCell id="CityEnergy_to_WindDevice_label" value="1:N" style="edgeLabel;html=1;align=center;verticalAlign=middle;resizable=0;points=[];fontSize=14;" connectable="0" vertex="1" parent="CityEnergy_to_WindDevice">
          <mxGeometry x="-0.2" y="1" width="50" height="30" relative="1" as="geometry">
            <mxPoint x="-25" y="-15" as="offset" />
          </mxGeometry>
        </mxCell>
        <mxCell id="HydroDevice_to_HydroHour" value="" style="edgeStyle=entityRelationEdgeStyle;endArrow=ERoneToMany;html=1;strokeWidth=1;strokeColor=#000000;fontSize=14;" edge="1" parent="1" source="HydroDevice" target="HydroHour">
          <mxGeometry relative="1" as="geometry" />
        </mxCell>
        <mxCell id="HydroDevice_to_HydroHour_label" value="1:N" style="edgeLabel;html=1;align=center;verticalAlign=middle;resizable=0;points=[];fontSize=14;" connectable="0" vertex="1" parent="HydroDevice_to_HydroHour">
          <mxGeometry x="-0.2" y="1" width="50" height="30" relative="1" as="geometry">
            <mxPoint x="-25" y="-15" as="offset" />
          </mxGeometry>
        </mxCell>
        <mxCell id="HydroDevice_to_HydroMonth" value="" style="edgeStyle=entityRelationEdgeStyle;endArrow=ERoneToMany;html=1;strokeWidth=1;strokeColor=#000000;fontSize=14;" edge="1" parent="1" source="HydroDevice" target="HydroMonth">
          <mxGeometry relative="1" as="geometry" />
        </mxCell>
        <mxCell id="HydroDevice_to_HydroMonth_label" value="1:N" style="edgeLabel;html=1;align=center;verticalAlign=middle;resizable=0;points=[];fontSize=14;" connectable="0" vertex="1" parent="HydroDevice_to_HydroMonth">
          <mxGeometry x="-0.2" y="1" width="50" height="30" relative="1" as="geometry">
            <mxPoint x="-25" y="-15" as="offset" />
          </mxGeometry>
        </mxCell>
        <mxCell id="HydroDevice_to_HydroYear" value="" style="edgeStyle=entityRelationEdgeStyle;endArrow=ERoneToMany;html=1;strokeWidth=1;strokeColor=#000000;fontSize=14;" edge="1" parent="1" source="HydroDevice" target="HydroYear">
          <mxGeometry relative="1" as="geometry" />
        </mxCell>
        <mxCell id="HydroDevice_to_HydroYear_label" value="1:N" style="edgeLabel;html=1;align=center;verticalAlign=middle;resizable=0;points=[];fontSize=14;" connectable="0" vertex="1" parent="HydroDevice_to_HydroYear">
          <mxGeometry x="-0.2" y="1" width="50" height="30" relative="1" as="geometry">
            <mxPoint x="-25" y="-15" as="offset" />
          </mxGeometry>
        </mxCell>
        <mxCell id="SolarDevice_to_SolarHour" value="" style="edgeStyle=entityRelationEdgeStyle;endArrow=ERoneToMany;html=1;strokeWidth=1;strokeColor=#000000;fontSize=14;" edge="1" parent="1" source="SolarDevice" target="SolarHour">
          <mxGeometry relative="1" as="geometry" />
        </mxCell>
        <mxCell id="SolarDevice_to_SolarHour_label" value="1:N" style="edgeLabel;html=1;align=center;verticalAlign=middle;resizable=0;points=[];fontSize=14;" connectable="0" vertex="1" parent="SolarDevice_to_SolarHour">
          <mxGeometry x="-0.2" y="1" width="50" height="30" relative="1" as="geometry">
            <mxPoint x="-25" y="-15" as="offset" />
          </mxGeometry>
        </mxCell>
        <mxCell id="SolarDevice_to_SolarMonth" value="" style="edgeStyle=entityRelationEdgeStyle;endArrow=ERoneToMany;html=1;strokeWidth=1;strokeColor=#000000;fontSize=14;" edge="1" parent="1" source="SolarDevice" target="SolarMonth">
          <mxGeometry relative="1" as="geometry" />
        </mxCell>
        <mxCell id="SolarDevice_to_SolarMonth_label" value="1:N" style="edgeLabel;html=1;align=center;verticalAlign=middle;resizable=0;points [];fontSize=14;" connectable="0" vertex="1" parent="SolarDevice_to_SolarMonth">
          <mxGeometry x="-0.2" y="1" width="50" height="30" relative="1" as="geometry">
            <mxPoint x="-25" y="-15" as="offset" />
          </mxGeometry>
        </mxCell>
        <mxCell id="SolarDevice_to_SolarYear" value="" style="edgeStyle=entityRelationEdgeStyle;endArrow=ERoneToMany;html=1;strokeWidth=1;strokeColor=#000000;fontSize=14;" edge="1" parent="1" source="SolarDevice" target="SolarYear">
          <mxGeometry relative="1" as="geometry" />
        </mxCell>
        <mxCell id="SolarDevice_to_SolarYear_label" value="1:N" style="edgeLabel;html=1;align=center;verticalAlign=middle;resizable=0;points=[];fontSize=14;" connectable="0" vertex="1" parent="SolarDevice_to_SolarYear">
          <mxGeometry x="-0.2" y="1" width="50" height="30" relative="1" as="geometry">
            <mxPoint x="-25" y="-15" as="offset" />
          </mxGeometry>
        </mxCell>
        <mxCell id="WindDevice_to_WindHour" value="" style="edgeStyle=entityRelationEdgeStyle;endArrow=ERoneToMany;html=1;strokeWidth=1;strokeColor=#000000;fontSize=14;" edge="1" parent="1" source="WindDevice" target="WindHour">
          <mxGeometry relative="1" as="geometry" />
        </mxCell>
        <mxCell id="WindDevice_to_WindHour_label" value="1:N" style="edgeLabel;html=1;align=center;verticalAlign=middle;resizable=0;points=[];fontSize=14;" connectable="0" vertex="1" parent="WindDevice_to_WindHour">
          <mxGeometry x="-0.2" y="1" width="50" height="30" relative="1" as="geometry">
            <mxPoint x="-25" y="-15" as="offset" />
          </mxGeometry>
        </mxCell>
        <mxCell id="WindDevice_to_WindMonth" value="" style="edgeStyle=entityRelationEdgeStyle;endArrow=ERoneToMany;html=1;strokeWidth=1;strokeColor=#000000;fontSize=14;" edge="1" parent="1" source="WindDevice" target="WindMonth">
          <mxGeometry relative="1" as="geometry" />
        </mxCell>
        <mxCell id="WindDevice_to_WindMonth_label" value="1:N" style="edgeLabel;html=1;align=center;verticalAlign=middle;resizable=0;points=[];fontSize=14;" connectable="0" vertex="1" parent="WindDevice_to_WindMonth">
          <mxGeometry x="-0.2" y="1" width="50" height="30" relative="1" as="geometry">
            <mxPoint x="-25" y="-15" as="offset" />
          </mxGeometry>
        </mxCell>
        <mxCell id="WindDevice_to_WindYear" value="" style="edgeStyle=entityRelationEdgeStyle;endArrow=ERoneToMany;html=1;strokeWidth=1;strokeColor=#000000;fontSize=14;" edge="1" parent="1" source="WindDevice" target="WindYear">
          <mxGeometry relative="1" as="geometry" />
        </mxCell>
        <mxCell id="WindDevice_to_WindYear_label" value="1:N" style="edgeLabel;html=1;align=center;verticalAlign=middle;resizable=0;points=[];fontSize=14;" connectable="0" vertex="1" parent="WindDevice_to_WindYear">
          <mxGeometry x="-0.2" y="1" width="50" height="30" relative="1" as="geometry">
            <mxPoint x="-25" y="-15" as="offset" />
          </mxGeometry>
        </mxCell>
        <mxCell id="TotalProduction_to_HydroHour" value="" style="edgeStyle=entityRelationEdgeStyle;endArrow=ERoneToMany;html=1;strokeWidth=1;strokeColor=#000000;fontSize=14;" edge="1" parent="1" source="TotalProduction" target="HydroHour">
          <mxGeometry relative="1" as="geometry" />
        </mxCell>
        <mxCell id="TotalProduction_to_HydroHour_label" value="1:N" style="edgeLabel;html=1;align=center;verticalAlign=middle;resizable=0;points=[];fontSize=14;" connectable="0" vertex="1" parent="TotalProduction_to_HydroHour">
          <mxGeometry x="-0.2" y="1" width="50" height="30" relative="1" as="geometry">
            <mxPoint x="-25" y="-15" as="offset" />
          </mxGeometry>
        </mxCell>
        <mxCell id="TotalProduction_to_SolarHour" value="" style="edgeStyle=entityRelationEdgeStyle;endArrow=ERoneToMany;html=1;strokeWidth=1;strokeColor=#000000;fontSize=14;" edge="1" parent="1" source="TotalProduction" target="SolarHour">
          <mxGeometry relative="1" as="geometry" />
        </mxCell>
        <mxCell id="TotalProduction_to_SolarHour_label" value="1:N" style="edgeLabel;html=1;align=center;verticalAlign=middle;resizable=0;points=[];fontSize=14;" connectable="0" vertex="1" parent="TotalProduction_to_SolarHour">
          <mxGeometry x="-0.2" y="1" width="50" height="30" relative="1" as="geometry">
            <mxPoint x="-25" y="-15" as="offset" />
          </mxGeometry>
        </mxCell>
        <mxCell id="TotalProduction_to_WindHour" value="" style="edgeStyle=entityRelationEdgeStyle;endArrow=ERoneToMany;html=1;strokeWidth=1;strokeColor=#000000;fontSize=14;" edge="1" parent="1" source="TotalProduction" target="WindHour">
          <mxGeometry relative="1" as="geometry" />
        </mxCell>
        <mxCell id="TotalProduction_to_WindHour_label" value="1:N" style="edgeLabel;html=1;align=center;verticalAlign=middle;resizable=0;points=[];fontSize=14;" connectable="0" vertex="1" parent="TotalProduction_to_WindHour">
          <mxGeometry x="-0.2" y="1" width="50" height="30" relative="1" as="geometry">
            <mxPoint x="-25" y="-15" as="offset" />
          </mxGeometry>
        </mxCell>
        <mxCell id="TotalConsumption_to_TotalProduction" value="" style="edgeStyle=entityRelationEdgeStyle;endArrow=ERoneToOne;html=1;strokeWidth=1;strokeColor=#000000;fontSize=14;" edge="1" parent="1" source="TotalConsumption" target="TotalProduction">
          <mxGeometry relative="1" as="geometry" />
        </mxCell>
        <mxCell id="TotalConsumption_to_TotalProduction_label" value="1:1" style="edgeLabel;html=1;align=center;verticalAlign=middle;resizable=0;points=[];fontSize=14;" connectable="0" vertex="1" parent="TotalConsumption_to_TotalProduction">
          <mxGeometry x="0.5" y="-1" width="40" height="30" relative="1" as="geometry">
            <mxPoint x="-20" y="-15" as="offset" />
          </mxGeometry>
        </mxCell>
        <mxCell id="CityEnergy_attrs_conn" style="edgeStyle=none;html=1;strokeWidth=1;strokeColor=#000000;dashed=1;" edge="1" parent="1" source="CityEnergy_attrs" target="CityEnergy">
          <mxGeometry relative="1" as="geometry" />
        </mxCell>
        <mxCell id="HydroDevice_attrs_conn" style="edgeStyle=none;html=1;strokeWidth=1;strokeColor=#000000;dashed=1;" edge="1" parent="1" source="HydroDevice_attrs" target="HydroDevice">
          <mxGeometry relative="1" as="geometry" />
        </mxCell>
        <mxCell id="SolarDevice_attrs_conn" style="edgeStyle=none;html=1;strokeWidth=1;strokeColor=#000000;dashed=1;" edge="1" parent="1" source="SolarDevice_attrs" target="SolarDevice">
          <mxGeometry relative="1" as="geometry" />
        </mxCell>
        <mxCell id="WindDevice_attrs_conn" style="edgeStyle=none;html=1;strokeWidth=1;strokeColor=#000000;dashed=1;" edge="1" parent="1" source="WindDevice_attrs" target="WindDevice">
          <mxGeometry relative="1" as="geometry" />
        </mxCell>
        <mxCell id="TotalProduction_attrs_conn" style="edgeStyle=none;html=1;strokeWidth=1;strokeColor=#000000;dashed=1;" edge="1" parent="1" source="TotalProduction_attrs" target="TotalProduction">
          <mxGeometry relative="1" as="geometry" />
        </mxCell>
        <mxCell id="TotalConsumption_attrs_conn" style="edgeStyle=none;html=1;strokeWidth=1;strokeColor=#000000;dashed=1;" edge="1" parent="1" source="TotalConsumption_attrs" target="TotalConsumption">
          <mxGeometry relative="1" as="geometry" />
        </mxCell>
        <mxCell id="HydroHour_attrs_conn" style="edgeStyle=none;html=1;strokeWidth=1;strokeColor=#000000;dashed=1;" edge="1" parent="1" source="HydroHour_attrs" target="HydroHour">
          <mxGeometry relative="1" as="geometry" />
        </mxCell>
        <mxCell id="SolarHour_attrs_conn" style="edgeStyle=none;html=1;strokeWidth=1;strokeColor=#000000;dashed=1;" edge="1" parent="1" source="SolarHour_attrs" target="SolarHour">
          <mxGeometry relative="1" as="geometry" />
        </mxCell>
        <mxCell id="WindHour_attrs_conn" style="edgeStyle=none;html=1;strokeWidth=1;strokeColor=#000000;dashed=1;" edge="1" parent="1" source="WindHour_attrs" target="WindHour">
          <mxGeometry relative="1" as="geometry" />
        </mxCell>
        <mxCell id="HydroMonth_attrs_conn" style="edgeStyle=none;html=1;strokeWidth=1;strokeColor=#000000;dashed=1;" edge="1" parent="1" source="HydroMonth_attrs" target="HydroMonth">
          <mxGeometry relative="1" as="geometry" />
        </mxCell>
        <mxCell id="SolarMonth_attrs_conn" style="edgeStyle=none;html=1;strokeWidth=1;strokeColor=#000000;dashed=1;" edge="1" parent="1" source="SolarMonth_attrs" target="SolarMonth">
          <mxGeometry relative="1" as="geometry" />
        </mxCell>
        <mxCell id="SolarYear_attrs_conn" style="edgeStyle=none;html=1;strokeWidth=1;strokeColor=#000000;dashed=1;" edge="1" parent="1" source="SolarYear_attrs" target="SolarYear">
          <mxGeometry relative="1" as="geometry" />
        </mxCell>
        <mxCell id="WindYear_attrs_conn" style="edgeStyle=none;html=1;strokeWidth=1;strokeColor=#000000;dashed=1;" edge="1" parent="1" source="WindYear_attrs" target="WindYear">
          <mxGeometry relative="1" as="geometry" />
        </mxCell>
        <mxCell id="TotalProduction" value="TotalProduction" style="shape=rectangle;whiteSpace=wrap;html=1;fillColor=#FFFFFF;strokeColor=#000000;fontColor=#000000;strokeWidth=1;fontSize=16;" vertex="1" parent="1">
          <mxGeometry x="550" y="-510" width="130" height="30" as="geometry" />
        </mxCell>
      </root>
    </mxGraphModel>
  </diagram>
  <diagram id="ODXygI4yaNWP-lBPkvQT" name="Page-3">
    <mxGraphModel dx="1426" dy="777" grid="1" gridSize="10" guides="1" tooltips="1" connect="1" arrows="1" fold="1" page="1" pageScale="1" pageWidth="827" pageHeight="1169" math="0" shadow="0">
      <root>
        <mxCell id="0" />
        <mxCell id="1" parent="0" />
        <mxCell id="solar_farm" value="Khu vực &#xa;năng lượng tái tạo" style="shape=ellipse;fontSize=16;strokeWidth=2;" parent="1" vertex="1">
          <mxGeometry x="10" y="50" width="170" height="70" as="geometry" />
        </mxCell>
        <mxCell id="esp8266" value="ESP8266" style="shape=hexagon;fontSize=16;strokeWidth=2;" parent="1" vertex="1">
          <mxGeometry x="70" y="260" width="130" height="90" as="geometry" />
        </mxCell>
        <mxCell id="firebase" value="Cơ sở dữ liệu&#xa;thời gian thực" style="shape=cloud;fontSize=16;strokeWidth=2;" parent="1" vertex="1">
          <mxGeometry x="360" y="265" width="190" height="85" as="geometry" />
        </mxCell>
        <mxCell id="web_interface" value="Giao diện Web" style="shape=rectangle;rounded=1;fontSize=18;strokeWidth=2;" parent="1" vertex="1">
          <mxGeometry x="680" y="272.5" width="140" height="70" as="geometry" />
        </mxCell>
        <mxCell id="city" value="&lt;div&gt;&lt;br&gt;&lt;/div&gt;Thành Phố (Metro)" style="strokeWidth=2;html=1;shape=mxgraph.flowchart.database;whiteSpace=wrap;fontSize=16;" parent="1" vertex="1">
          <mxGeometry x="220" y="50" width="120" height="70" as="geometry" />
        </mxCell>
        <mxCell id="solar_to_esp" value="&lt;font style=&quot;color: rgb(0, 0, 0); font-size: 14px;&quot;&gt;Dữ liệu&lt;/font&gt;&lt;div&gt;&lt;font style=&quot;color: rgb(0, 0, 0); font-size: 14px;&quot;&gt;Mặt trời, gió, thủy điện&lt;/font&gt;&lt;/div&gt;" style="endArrow=classic;html=1;strokeWidth=2;fontSize=12;fontColor=#FF8F00;exitX=0.5;exitY=1;entryX=0.375;entryY=0;entryDx=0;entryDy=0;" parent="1" source="solar_farm" target="esp8266" edge="1">
          <mxGeometry x="0.0655" y="3" relative="1" as="geometry">
            <mxPoint x="100" y="250" as="targetPoint" />
            <mxPoint as="offset" />
          </mxGeometry>
        </mxCell>
        <mxCell id="esp_to_firebase" value="&lt;font style=&quot;color: rgb(0, 0, 0); font-size: 14px;&quot;&gt;Gửi dữ liệu qua WiFi&lt;/font&gt;" style="endArrow=classic;html=1;strokeWidth=2;fontSize=12;fontColor=#5E35B1;dashed=0;entryX=0.074;entryY=0.482;entryDx=0;entryDy=0;entryPerimeter=0;" parent="1" source="esp8266" target="firebase" edge="1">
          <mxGeometry relative="1" as="geometry">
            <mxPoint x="290" y="603" as="targetPoint" />
          </mxGeometry>
        </mxCell>
        <mxCell id="firebase_to_web" value="&lt;font style=&quot;font-size: 14px; color: light-dark(rgb(0, 0, 0), rgb(237, 237, 237));&quot;&gt;Dữ liệu&lt;br&gt;từng khu vực&lt;/font&gt;" style="endArrow=classic;html=1;strokeWidth=2;fontSize=12;fontColor=#01579B;dashed=0;" parent="1" source="firebase" target="web_interface" edge="1">
          <mxGeometry x="-0.1106" y="6" relative="1" as="geometry">
            <mxPoint as="offset" />
          </mxGeometry>
        </mxCell>
        <mxCell id="firebase_to_esp" value="&lt;font style=&quot;font-size: 14px; color: light-dark(rgb(0, 0, 0), rgb(237, 237, 237));&quot;&gt;Dữ liệu hiển thị OLED&lt;/font&gt;" style="endArrow=classic;html=1;strokeWidth=2;fontSize=12;fontColor=#5E35B1;dashed=0;exitX=0.13;exitY=0.77;exitDx=0;exitDy=0;exitPerimeter=0;entryX=0.869;entryY=0.767;entryDx=0;entryDy=0;entryPerimeter=0;" parent="1" edge="1" target="esp8266" source="firebase">
          <mxGeometry x="-0.068" y="1" relative="1" as="geometry">
            <mxPoint x="310" y="630.54" as="sourcePoint" />
            <mxPoint x="138" y="320" as="targetPoint" />
            <Array as="points" />
            <mxPoint as="offset" />
          </mxGeometry>
        </mxCell>
        <mxCell id="city_to_firebase" value="&lt;font style=&quot;color: rgb(0, 0, 0); font-size: 14px;&quot;&gt;Năng lượng tiêu thụ&lt;/font&gt;" style="endArrow=classic;html=1;strokeWidth=2;fontSize=12;fontColor=#7B1FA2;exitX=0.5;exitY=1;exitDx=0;exitDy=0;exitPerimeter=0;entryX=0.625;entryY=0;entryDx=0;entryDy=0;" parent="1" source="city" target="esp8266" edge="1">
          <mxGeometry x="-0.2571" y="-3" relative="1" as="geometry">
            <Array as="points" />
            <mxPoint as="offset" />
          </mxGeometry>
        </mxCell>
        <mxCell id="calculations" value="Tính toán sản lượng điện" style="shape=rectangle;rounded=1;fontSize=14;strokeWidth=2;" parent="1" vertex="1">
          <mxGeometry x="520" y="400" width="170" height="50" as="geometry" />
        </mxCell>
        <mxCell id="firebase_to_calc" value="" style="endArrow=classic;html=1;strokeWidth=2;strokeColor=#616161;fontSize=12;dashed=0;" parent="1" source="calculations" target="firebase" edge="1">
          <mxGeometry relative="1" as="geometry" />
        </mxCell>
        <mxCell id="hq0E4BFVcQaOYP95ZEng-3" value="&lt;font style=&quot;font-size: 14px;&quot;&gt;Kết quả&lt;/font&gt;" style="edgeLabel;html=1;align=center;verticalAlign=middle;resizable=0;points=[];" vertex="1" connectable="0" parent="firebase_to_calc">
          <mxGeometry x="-0.0783" relative="1" as="geometry">
            <mxPoint as="offset" />
          </mxGeometry>
        </mxCell>
        <mxCell id="calc_to_web" value="" style="endArrow=classic;html=1;strokeWidth=2;strokeColor=#616161;fontSize=12;dashed=0;" parent="1" source="web_interface" target="calculations" edge="1">
          <mxGeometry relative="1" as="geometry" />
        </mxCell>
        <mxCell id="hq0E4BFVcQaOYP95ZEng-5" value="" style="edgeStyle=orthogonalEdgeStyle;rounded=0;orthogonalLoop=1;jettySize=auto;html=1;strokeWidth=2;" edge="1" parent="1" source="esp8266" target="hq0E4BFVcQaOYP95ZEng-4">
          <mxGeometry relative="1" as="geometry" />
        </mxCell>
        <mxCell id="hq0E4BFVcQaOYP95ZEng-6" value="&lt;font style=&quot;font-size: 15px;&quot;&gt;sản lượng&lt;/font&gt;&lt;div&gt;&lt;font style=&quot;font-size: 15px;&quot;&gt;từng khu vực&lt;/font&gt;&lt;/div&gt;" style="edgeLabel;html=1;align=center;verticalAlign=middle;resizable=0;points=[];" vertex="1" connectable="0" parent="hq0E4BFVcQaOYP95ZEng-5">
          <mxGeometry x="-0.2667" relative="1" as="geometry">
            <mxPoint as="offset" />
          </mxGeometry>
        </mxCell>
        <mxCell id="hq0E4BFVcQaOYP95ZEng-4" value="&lt;font style=&quot;font-size: 16px;&quot;&gt;OLED&lt;/font&gt;" style="rounded=0;whiteSpace=wrap;html=1;strokeWidth=2;" vertex="1" parent="1">
          <mxGeometry x="75" y="420" width="120" height="60" as="geometry" />
        </mxCell>
      </root>
    </mxGraphModel>
  </diagram>
  <diagram id="0hAz44iNbdxnLV2JnZWi" name="Page-4">
    <mxGraphModel dx="599" dy="777" grid="1" gridSize="10" guides="1" tooltips="1" connect="1" arrows="1" fold="1" page="1" pageScale="1" pageWidth="827" pageHeight="1169" math="0" shadow="0">
      <root>
        <mxCell id="0" />
        <mxCell id="1" parent="0" />
        <mxCell id="QM8A6DoiPzgbvzXTWKNx-76" value="Physic-Info" style="shape=rectangle;whiteSpace=wrap;html=1;fillColor=#FFFFFF;strokeColor=#000000;fontColor=#000000;strokeWidth=1;fontSize=16;" parent="1" vertex="1">
          <mxGeometry x="970" y="610" width="100" height="30" as="geometry" />
        </mxCell>
        <mxCell id="QM8A6DoiPzgbvzXTWKNx-77" value="HydroDevice" style="shape=rectangle;whiteSpace=wrap;html=1;fillColor=#FFFFFF;strokeColor=#000000;fontColor=#000000;strokeWidth=1;fontSize=16;" parent="1" vertex="1">
          <mxGeometry x="1130" y="835" width="120" height="30" as="geometry" />
        </mxCell>
        <mxCell id="QM8A6DoiPzgbvzXTWKNx-78" value="SolarDevice" style="shape=rectangle;whiteSpace=wrap;html=1;fillColor=#FFFFFF;strokeColor=#000000;fontColor=#000000;strokeWidth=1;fontSize=16;" parent="1" vertex="1">
          <mxGeometry x="1130" y="390" width="110" height="30" as="geometry" />
        </mxCell>
        <mxCell id="QM8A6DoiPzgbvzXTWKNx-79" value="WindDevice" style="shape=rectangle;whiteSpace=wrap;html=1;fillColor=#FFFFFF;strokeColor=#000000;fontColor=#000000;strokeWidth=1;fontSize=16;" parent="1" vertex="1">
          <mxGeometry x="1130" y="610" width="110" height="30" as="geometry" />
        </mxCell>
        <mxCell id="QM8A6DoiPzgbvzXTWKNx-91" value="&lt;b&gt;Thuộc tính&lt;/b&gt;&lt;br&gt;device_name: String&lt;br&gt;efficiency: String&lt;br&gt;energy_type: String&lt;br&gt;origin: String&lt;br&gt;power: String&lt;br&gt;quantity: String&lt;br&gt;status: String&lt;br&gt;flow_rate: String&lt;br&gt;head_height: String&lt;br&gt;turbine_type: String" style="rounded=0;whiteSpace=wrap;html=1;fillColor=#FFFFFF;strokeColor=#000000;fontColor=#000000;strokeWidth=1;fontSize=16;" parent="1" vertex="1">
          <mxGeometry x="1330" y="740" width="170" height="220" as="geometry" />
        </mxCell>
        <mxCell id="QM8A6DoiPzgbvzXTWKNx-92" value="&lt;b&gt;Thuộc tính&lt;/b&gt;&lt;br&gt;device_name: String&lt;br&gt;efficiency: String&lt;br&gt;energy_type: String&lt;br&gt;origin: String&lt;br&gt;power: String&lt;br&gt;quantity: String&lt;br&gt;status: String&lt;br&gt;size: String&lt;br&gt;weight: String" style="rounded=0;whiteSpace=wrap;html=1;fillColor=#FFFFFF;strokeColor=#000000;fontColor=#000000;strokeWidth=1;fontSize=16;" parent="1" vertex="1">
          <mxGeometry x="1330" y="300" width="170" height="210" as="geometry" />
        </mxCell>
        <mxCell id="QM8A6DoiPzgbvzXTWKNx-93" value="&lt;b&gt;Thuộc tính&lt;/b&gt;&lt;br&gt;device_name: String&lt;br&gt;efficiency: String&lt;br&gt;energy_type: String&lt;br&gt;origin: String&lt;br&gt;power: String&lt;br&gt;quantity: String&lt;br&gt;status: String&lt;br&gt;size: String&lt;br&gt;weight: String" style="rounded=0;whiteSpace=wrap;html=1;fillColor=#FFFFFF;strokeColor=#000000;fontColor=#000000;strokeWidth=1;fontSize=16;" parent="1" vertex="1">
          <mxGeometry x="1330" y="520" width="170" height="210" as="geometry" />
        </mxCell>
        <mxCell id="QM8A6DoiPzgbvzXTWKNx-105" value="" style="edgeStyle=entityRelationEdgeStyle;endArrow=ERoneToMany;html=1;strokeWidth=1;strokeColor=#000000;fontSize=14;" parent="1" source="QM8A6DoiPzgbvzXTWKNx-76" target="QM8A6DoiPzgbvzXTWKNx-77" edge="1">
          <mxGeometry relative="1" as="geometry" />
        </mxCell>
        <mxCell id="QM8A6DoiPzgbvzXTWKNx-107" value="" style="edgeStyle=entityRelationEdgeStyle;endArrow=ERoneToMany;html=1;strokeWidth=1;strokeColor=#000000;fontSize=14;" parent="1" source="QM8A6DoiPzgbvzXTWKNx-76" target="QM8A6DoiPzgbvzXTWKNx-78" edge="1">
          <mxGeometry relative="1" as="geometry" />
        </mxCell>
        <mxCell id="QM8A6DoiPzgbvzXTWKNx-109" value="" style="edgeStyle=entityRelationEdgeStyle;endArrow=ERoneToMany;html=1;strokeWidth=1;strokeColor=#000000;fontSize=14;" parent="1" source="QM8A6DoiPzgbvzXTWKNx-76" target="QM8A6DoiPzgbvzXTWKNx-79" edge="1">
          <mxGeometry relative="1" as="geometry" />
        </mxCell>
        <mxCell id="QM8A6DoiPzgbvzXTWKNx-110" value="1:N" style="edgeLabel;html=1;align=center;verticalAlign=middle;resizable=0;points=[];fontSize=14;" parent="QM8A6DoiPzgbvzXTWKNx-109" connectable="0" vertex="1">
          <mxGeometry x="-0.2" y="1" width="50" height="30" relative="1" as="geometry">
            <mxPoint x="-25" y="-15" as="offset" />
          </mxGeometry>
        </mxCell>
        <mxCell id="QM8A6DoiPzgbvzXTWKNx-138" style="edgeStyle=none;html=1;strokeWidth=1;strokeColor=#000000;dashed=1;" parent="1" source="QM8A6DoiPzgbvzXTWKNx-91" target="QM8A6DoiPzgbvzXTWKNx-77" edge="1">
          <mxGeometry relative="1" as="geometry" />
        </mxCell>
        <mxCell id="QM8A6DoiPzgbvzXTWKNx-139" style="edgeStyle=none;html=1;strokeWidth=1;strokeColor=#000000;dashed=1;" parent="1" source="QM8A6DoiPzgbvzXTWKNx-92" target="QM8A6DoiPzgbvzXTWKNx-78" edge="1">
          <mxGeometry relative="1" as="geometry" />
        </mxCell>
        <mxCell id="QM8A6DoiPzgbvzXTWKNx-140" style="edgeStyle=none;html=1;strokeWidth=1;strokeColor=#000000;dashed=1;" parent="1" source="QM8A6DoiPzgbvzXTWKNx-93" target="QM8A6DoiPzgbvzXTWKNx-79" edge="1">
          <mxGeometry relative="1" as="geometry" />
        </mxCell>
      </root>
    </mxGraphModel>
  </diagram>
  <diagram id="cll8XO4kReDLh80O4dlz" name="Page-5">
    <mxGraphModel dx="1426" dy="777" grid="1" gridSize="10" guides="1" tooltips="1" connect="1" arrows="1" fold="1" page="1" pageScale="1" pageWidth="827" pageHeight="1169" math="0" shadow="0">
      <root>
        <mxCell id="0" />
        <mxCell id="1" parent="0" />
        <mxCell id="wioeNHNyQq4MMcJaIrNh-3" style="edgeStyle=orthogonalEdgeStyle;rounded=0;orthogonalLoop=1;jettySize=auto;html=1;exitX=0.5;exitY=1;exitDx=0;exitDy=0;entryX=0.5;entryY=1;entryDx=0;entryDy=0;dashed=1;" edge="1" parent="1" source="YzHDYh7QxgfQG8AusV_1-1" target="YK8M3Giiq3n9gMeYlvH7-1">
          <mxGeometry relative="1" as="geometry" />
        </mxCell>
        <mxCell id="YzHDYh7QxgfQG8AusV_1-1" value="Physic-Info" style="shape=rectangle;whiteSpace=wrap;html=1;fillColor=#FFFFFF;strokeColor=#000000;fontColor=#000000;strokeWidth=1;fontSize=16;" parent="1" vertex="1">
          <mxGeometry x="91" y="290" width="100" height="30" as="geometry" />
        </mxCell>
        <mxCell id="k3vsvgSl6hsYRuNWCGbA-4" style="edgeStyle=orthogonalEdgeStyle;rounded=0;orthogonalLoop=1;jettySize=auto;html=1;exitX=1;exitY=0.5;exitDx=0;exitDy=0;entryX=0;entryY=0.5;entryDx=0;entryDy=0;endArrow=ERoneToMany;endFill=0;" edge="1" parent="1" source="YK8M3Giiq3n9gMeYlvH7-1" target="G6TCydXEKkIT3NYUfUjl-1">
          <mxGeometry relative="1" as="geometry">
            <Array as="points">
              <mxPoint x="371" y="305" />
              <mxPoint x="371" y="385" />
            </Array>
          </mxGeometry>
        </mxCell>
        <mxCell id="k3vsvgSl6hsYRuNWCGbA-5" style="edgeStyle=orthogonalEdgeStyle;rounded=0;orthogonalLoop=1;jettySize=auto;html=1;exitX=1;exitY=0.5;exitDx=0;exitDy=0;entryX=0;entryY=0.5;entryDx=0;entryDy=0;endArrow=ERoneToMany;endFill=0;" edge="1" parent="1" source="YK8M3Giiq3n9gMeYlvH7-1" target="G6TCydXEKkIT3NYUfUjl-3">
          <mxGeometry relative="1" as="geometry">
            <Array as="points">
              <mxPoint x="371" y="305" />
              <mxPoint x="371" y="225" />
            </Array>
          </mxGeometry>
        </mxCell>
        <mxCell id="YK8M3Giiq3n9gMeYlvH7-1" value="Renewable" style="shape=rectangle;whiteSpace=wrap;html=1;fillColor=#FFFFFF;strokeColor=#000000;fontColor=#000000;strokeWidth=1;fontSize=16;" parent="1" vertex="1">
          <mxGeometry x="211" y="290" width="130" height="30" as="geometry" />
        </mxCell>
        <mxCell id="bsdqFNz7OFdcC76bnU0U-12" style="edgeStyle=orthogonalEdgeStyle;rounded=0;orthogonalLoop=1;jettySize=auto;html=1;exitX=1;exitY=0.5;exitDx=0;exitDy=0;entryX=0;entryY=0.5;entryDx=0;entryDy=0;endArrow=ERoneToMany;endFill=0;" edge="1" parent="1" target="MxfFeAXVAh1K0dDXAESR-1">
          <mxGeometry relative="1" as="geometry">
            <mxPoint x="375" y="385" as="sourcePoint" />
            <Array as="points">
              <mxPoint x="541" y="385" />
              <mxPoint x="541" y="305" />
            </Array>
          </mxGeometry>
        </mxCell>
        <mxCell id="G6TCydXEKkIT3NYUfUjl-1" value="HydroHour" style="shape=rectangle;whiteSpace=wrap;html=1;fillColor=#FFFFFF;strokeColor=#000000;fontColor=#000000;strokeWidth=1;fontSize=16;" parent="1" vertex="1">
          <mxGeometry x="405" y="370" width="100" height="30" as="geometry" />
        </mxCell>
        <mxCell id="bsdqFNz7OFdcC76bnU0U-11" style="edgeStyle=orthogonalEdgeStyle;rounded=0;orthogonalLoop=1;jettySize=auto;html=1;exitX=1;exitY=0.5;exitDx=0;exitDy=0;entryX=0;entryY=0.5;entryDx=0;entryDy=0;endArrow=ERoneToMany;endFill=0;" edge="1" parent="1" target="MxfFeAXVAh1K0dDXAESR-1">
          <mxGeometry relative="1" as="geometry">
            <mxPoint x="371" y="225" as="sourcePoint" />
            <Array as="points">
              <mxPoint x="541" y="225" />
              <mxPoint x="541" y="305" />
            </Array>
          </mxGeometry>
        </mxCell>
        <mxCell id="G6TCydXEKkIT3NYUfUjl-3" value="SolarHour" style="shape=rectangle;whiteSpace=wrap;html=1;fillColor=#FFFFFF;strokeColor=#000000;fontColor=#000000;strokeWidth=1;fontSize=16;" parent="1" vertex="1">
          <mxGeometry x="401" y="210" width="100" height="30" as="geometry" />
        </mxCell>
        <mxCell id="MoUKDl5ilj-aF-xyMNiO-3" value="" style="edgeStyle=entityRelationEdgeStyle;endArrow=ERoneToMany;html=1;strokeWidth=1;strokeColor=#000000;fontSize=14;entryX=0;entryY=0.5;entryDx=0;entryDy=0;exitX=1;exitY=0.5;exitDx=0;exitDy=0;" parent="1" source="G6TCydXEKkIT3NYUfUjl-2" edge="1">
          <mxGeometry relative="1" as="geometry">
            <mxPoint x="421" y="304.5" as="sourcePoint" />
            <mxPoint x="481" y="304.5" as="targetPoint" />
            <Array as="points">
              <mxPoint x="451" y="319.5" />
            </Array>
          </mxGeometry>
        </mxCell>
        <mxCell id="MxfFeAXVAh1K0dDXAESR-1" value="TotalProduction" style="shape=rectangle;whiteSpace=wrap;html=1;fillColor=#FFFFFF;strokeColor=#000000;fontColor=#000000;strokeWidth=1;fontSize=16;" vertex="1" parent="1">
          <mxGeometry x="571" y="290" width="130" height="30" as="geometry" />
        </mxCell>
        <mxCell id="MxfFeAXVAh1K0dDXAESR-7" value="" style="edgeStyle=entityRelationEdgeStyle;endArrow=ERoneToMany;html=1;strokeWidth=1;strokeColor=#000000;fontSize=14;exitX=1;exitY=0.5;exitDx=0;exitDy=0;entryX=0;entryY=0.5;entryDx=0;entryDy=0;" edge="1" parent="1" target="MxfFeAXVAh1K0dDXAESR-1">
          <mxGeometry relative="1" as="geometry">
            <mxPoint x="375" y="305" as="sourcePoint" />
            <mxPoint x="511" y="305" as="targetPoint" />
          </mxGeometry>
        </mxCell>
        <mxCell id="MxfFeAXVAh1K0dDXAESR-8" value="1:1" style="edgeLabel;html=1;align=center;verticalAlign=middle;resizable=0;points=[];fontSize=14;" connectable="0" vertex="1" parent="MxfFeAXVAh1K0dDXAESR-7">
          <mxGeometry x="-0.2" y="1" width="50" height="30" relative="1" as="geometry">
            <mxPoint x="58" y="-14" as="offset" />
          </mxGeometry>
        </mxCell>
        <mxCell id="k3vsvgSl6hsYRuNWCGbA-1" value="" style="edgeStyle=entityRelationEdgeStyle;endArrow=ERoneToMany;html=1;strokeWidth=1;strokeColor=#000000;fontSize=14;entryX=0;entryY=0.5;entryDx=0;entryDy=0;exitX=1;exitY=0.5;exitDx=0;exitDy=0;" edge="1" parent="1" source="YK8M3Giiq3n9gMeYlvH7-1" target="G6TCydXEKkIT3NYUfUjl-2">
          <mxGeometry relative="1" as="geometry">
            <mxPoint x="341" y="305" as="sourcePoint" />
            <mxPoint x="481" y="304.5" as="targetPoint" />
            <Array as="points" />
          </mxGeometry>
        </mxCell>
        <mxCell id="k3vsvgSl6hsYRuNWCGbA-7" value="&lt;font style=&quot;font-size: 14px;&quot;&gt;1:1&lt;/font&gt;" style="edgeLabel;html=1;align=center;verticalAlign=middle;resizable=0;points=[];" vertex="1" connectable="0" parent="k3vsvgSl6hsYRuNWCGbA-1">
          <mxGeometry x="-0.0625" y="-1" relative="1" as="geometry">
            <mxPoint as="offset" />
          </mxGeometry>
        </mxCell>
        <mxCell id="G6TCydXEKkIT3NYUfUjl-2" value="WindHour" style="shape=rectangle;whiteSpace=wrap;html=1;fillColor=#FFFFFF;strokeColor=#000000;fontColor=#000000;strokeWidth=1;fontSize=16;" parent="1" vertex="1">
          <mxGeometry x="405" y="290" width="100" height="30" as="geometry" />
        </mxCell>
        <mxCell id="wioeNHNyQq4MMcJaIrNh-2" style="edgeStyle=orthogonalEdgeStyle;rounded=0;orthogonalLoop=1;jettySize=auto;html=1;exitX=0.5;exitY=0;exitDx=0;exitDy=0;entryX=0.5;entryY=1;entryDx=0;entryDy=0;dashed=1;" edge="1" parent="1" source="wioeNHNyQq4MMcJaIrNh-1" target="MxfFeAXVAh1K0dDXAESR-1">
          <mxGeometry relative="1" as="geometry" />
        </mxCell>
        <mxCell id="wioeNHNyQq4MMcJaIrNh-1" value="&lt;b&gt;Thuộc tính&lt;/b&gt;&lt;br&gt;entity: String&lt;br&gt;hydro_value: Integer&lt;br&gt;solar_value: Integer&lt;br&gt;wind_value: Integer&lt;br&gt;hydro_percentage: String&lt;br&gt;solar_percentage: String&lt;br&gt;wind_percentage: String" style="rounded=0;whiteSpace=wrap;html=1;fillColor=#FFFFFF;strokeColor=#000000;fontColor=#000000;strokeWidth=1;fontSize=16;" vertex="1" parent="1">
          <mxGeometry x="536" y="400" width="200" height="170" as="geometry" />
        </mxCell>
      </root>
    </mxGraphModel>
  </diagram>
  <diagram id="eNdN813vjcNLhk2ef44_" name="Page-6">
    <mxGraphModel dx="1426" dy="777" grid="1" gridSize="10" guides="1" tooltips="1" connect="1" arrows="1" fold="1" page="1" pageScale="1" pageWidth="827" pageHeight="1169" math="0" shadow="0">
      <root>
        <mxCell id="0" />
        <mxCell id="1" parent="0" />
        <mxCell id="8IV70De5JUZ1lXYdQ3Bd-1" style="edgeStyle=orthogonalEdgeStyle;rounded=0;orthogonalLoop=1;jettySize=auto;html=1;exitX=1;exitY=0.5;exitDx=0;exitDy=0;entryX=0;entryY=0.5;entryDx=0;entryDy=0;endArrow=ERoneToMany;endFill=0;" edge="1" parent="1" source="vDtjlmSr-5Rd0RSbNLYA-2" target="vDtjlmSr-5Rd0RSbNLYA-22">
          <mxGeometry relative="1" as="geometry" />
        </mxCell>
        <mxCell id="8IV70De5JUZ1lXYdQ3Bd-2" style="edgeStyle=orthogonalEdgeStyle;rounded=0;orthogonalLoop=1;jettySize=auto;html=1;exitX=1;exitY=0.5;exitDx=0;exitDy=0;entryX=0;entryY=0.5;entryDx=0;entryDy=0;endArrow=ERoneToMany;endFill=0;" edge="1" parent="1" source="vDtjlmSr-5Rd0RSbNLYA-2" target="vDtjlmSr-5Rd0RSbNLYA-23">
          <mxGeometry relative="1" as="geometry" />
        </mxCell>
        <mxCell id="8IV70De5JUZ1lXYdQ3Bd-3" style="edgeStyle=orthogonalEdgeStyle;rounded=0;orthogonalLoop=1;jettySize=auto;html=1;exitX=1;exitY=0.5;exitDx=0;exitDy=0;entryX=0;entryY=0.5;entryDx=0;entryDy=0;endArrow=ERoneToMany;endFill=0;" edge="1" parent="1" source="vDtjlmSr-5Rd0RSbNLYA-2" target="vDtjlmSr-5Rd0RSbNLYA-21">
          <mxGeometry relative="1" as="geometry" />
        </mxCell>
        <mxCell id="8IV70De5JUZ1lXYdQ3Bd-13" value="&lt;font style=&quot;font-size: 14px;&quot;&gt;1:1&lt;/font&gt;" style="edgeLabel;html=1;align=center;verticalAlign=middle;resizable=0;points=[];" vertex="1" connectable="0" parent="8IV70De5JUZ1lXYdQ3Bd-3">
          <mxGeometry x="-0.2667" y="2" relative="1" as="geometry">
            <mxPoint as="offset" />
          </mxGeometry>
        </mxCell>
        <mxCell id="8IV70De5JUZ1lXYdQ3Bd-7" style="edgeStyle=orthogonalEdgeStyle;rounded=0;orthogonalLoop=1;jettySize=auto;html=1;exitX=1;exitY=0.25;exitDx=0;exitDy=0;entryX=0;entryY=0.5;entryDx=0;entryDy=0;endArrow=ERoneToMany;endFill=0;" edge="1" parent="1" source="vDtjlmSr-5Rd0RSbNLYA-2" target="hLbwp5NbZXMHT625sPss-10">
          <mxGeometry relative="1" as="geometry">
            <Array as="points">
              <mxPoint x="240" y="468" />
              <mxPoint x="240" y="255" />
            </Array>
          </mxGeometry>
        </mxCell>
        <mxCell id="8IV70De5JUZ1lXYdQ3Bd-8" style="edgeStyle=orthogonalEdgeStyle;rounded=0;orthogonalLoop=1;jettySize=auto;html=1;exitX=1;exitY=0.25;exitDx=0;exitDy=0;entryX=0;entryY=0.5;entryDx=0;entryDy=0;endArrow=ERoneToMany;endFill=0;" edge="1" parent="1" source="vDtjlmSr-5Rd0RSbNLYA-2" target="hLbwp5NbZXMHT625sPss-9">
          <mxGeometry relative="1" as="geometry">
            <Array as="points">
              <mxPoint x="240" y="468" />
              <mxPoint x="240" y="305" />
            </Array>
          </mxGeometry>
        </mxCell>
        <mxCell id="8IV70De5JUZ1lXYdQ3Bd-9" style="edgeStyle=orthogonalEdgeStyle;rounded=0;orthogonalLoop=1;jettySize=auto;html=1;exitX=1;exitY=0.25;exitDx=0;exitDy=0;entryX=0;entryY=0.5;entryDx=0;entryDy=0;endArrow=ERoneToMany;endFill=0;" edge="1" parent="1" source="vDtjlmSr-5Rd0RSbNLYA-2" target="hLbwp5NbZXMHT625sPss-8">
          <mxGeometry relative="1" as="geometry">
            <Array as="points">
              <mxPoint x="240" y="468" />
              <mxPoint x="240" y="355" />
            </Array>
          </mxGeometry>
        </mxCell>
        <mxCell id="8IV70De5JUZ1lXYdQ3Bd-15" value="&lt;font style=&quot;font-size: 14px;&quot;&gt;1:1&lt;/font&gt;" style="edgeLabel;html=1;align=center;verticalAlign=middle;resizable=0;points=[];" vertex="1" connectable="0" parent="8IV70De5JUZ1lXYdQ3Bd-9">
          <mxGeometry x="-0.0309" relative="1" as="geometry">
            <mxPoint y="1" as="offset" />
          </mxGeometry>
        </mxCell>
        <mxCell id="8IV70De5JUZ1lXYdQ3Bd-10" style="edgeStyle=orthogonalEdgeStyle;rounded=0;orthogonalLoop=1;jettySize=auto;html=1;exitX=1;exitY=0.75;exitDx=0;exitDy=0;entryX=0;entryY=0.5;entryDx=0;entryDy=0;endArrow=ERoneToMany;endFill=0;" edge="1" parent="1" source="vDtjlmSr-5Rd0RSbNLYA-2" target="vDtjlmSr-5Rd0RSbNLYA-5">
          <mxGeometry relative="1" as="geometry">
            <Array as="points">
              <mxPoint x="240" y="483" />
              <mxPoint x="240" y="595" />
            </Array>
          </mxGeometry>
        </mxCell>
        <mxCell id="8IV70De5JUZ1lXYdQ3Bd-11" style="edgeStyle=orthogonalEdgeStyle;rounded=0;orthogonalLoop=1;jettySize=auto;html=1;exitX=1;exitY=0.75;exitDx=0;exitDy=0;entryX=0;entryY=0.5;entryDx=0;entryDy=0;endArrow=ERoneToMany;endFill=0;" edge="1" parent="1" source="vDtjlmSr-5Rd0RSbNLYA-2" target="vDtjlmSr-5Rd0RSbNLYA-4">
          <mxGeometry relative="1" as="geometry">
            <Array as="points">
              <mxPoint x="240" y="483" />
              <mxPoint x="240" y="645" />
            </Array>
          </mxGeometry>
        </mxCell>
        <mxCell id="8IV70De5JUZ1lXYdQ3Bd-12" style="edgeStyle=orthogonalEdgeStyle;rounded=0;orthogonalLoop=1;jettySize=auto;html=1;exitX=1;exitY=0.75;exitDx=0;exitDy=0;entryX=0;entryY=0.5;entryDx=0;entryDy=0;endArrow=ERoneToMany;endFill=0;" edge="1" parent="1" source="vDtjlmSr-5Rd0RSbNLYA-2" target="vDtjlmSr-5Rd0RSbNLYA-3">
          <mxGeometry relative="1" as="geometry">
            <Array as="points">
              <mxPoint x="240" y="483" />
              <mxPoint x="240" y="695" />
            </Array>
          </mxGeometry>
        </mxCell>
        <mxCell id="8IV70De5JUZ1lXYdQ3Bd-16" value="1:1" style="edgeLabel;html=1;align=center;verticalAlign=middle;resizable=0;points=[];fontSize=14;" vertex="1" connectable="0" parent="8IV70De5JUZ1lXYdQ3Bd-12">
          <mxGeometry x="-0.2438" relative="1" as="geometry">
            <mxPoint y="1" as="offset" />
          </mxGeometry>
        </mxCell>
        <mxCell id="vDtjlmSr-5Rd0RSbNLYA-2" value="Renewable" style="shape=rectangle;whiteSpace=wrap;html=1;fillColor=#FFFFFF;strokeColor=#000000;fontColor=#000000;strokeWidth=1;fontSize=16;" vertex="1" parent="1">
          <mxGeometry x="60" y="460" width="130" height="30" as="geometry" />
        </mxCell>
        <mxCell id="vDtjlmSr-5Rd0RSbNLYA-3" value="HydroHour" style="shape=rectangle;whiteSpace=wrap;html=1;fillColor=#FFFFFF;strokeColor=#000000;fontColor=#000000;strokeWidth=1;fontSize=16;" vertex="1" parent="1">
          <mxGeometry x="320" y="680" width="100" height="30" as="geometry" />
        </mxCell>
        <mxCell id="vDtjlmSr-5Rd0RSbNLYA-4" value="WindHour" style="shape=rectangle;whiteSpace=wrap;html=1;fillColor=#FFFFFF;strokeColor=#000000;fontColor=#000000;strokeWidth=1;fontSize=16;" vertex="1" parent="1">
          <mxGeometry x="320" y="630" width="100" height="30" as="geometry" />
        </mxCell>
        <mxCell id="vDtjlmSr-5Rd0RSbNLYA-5" value="SolarHour" style="shape=rectangle;whiteSpace=wrap;html=1;fillColor=#FFFFFF;strokeColor=#000000;fontColor=#000000;strokeWidth=1;fontSize=16;" vertex="1" parent="1">
          <mxGeometry x="320" y="580" width="100" height="30" as="geometry" />
        </mxCell>
        <mxCell id="vDtjlmSr-5Rd0RSbNLYA-14" style="edgeStyle=orthogonalEdgeStyle;rounded=0;orthogonalLoop=1;jettySize=auto;html=1;exitX=0;exitY=0.5;exitDx=0;exitDy=0;entryX=1;entryY=0.5;entryDx=0;entryDy=0;dashed=1;" edge="1" parent="1" source="vDtjlmSr-5Rd0RSbNLYA-20" target="vDtjlmSr-5Rd0RSbNLYA-5">
          <mxGeometry relative="1" as="geometry" />
        </mxCell>
        <mxCell id="vDtjlmSr-5Rd0RSbNLYA-16" style="edgeStyle=orthogonalEdgeStyle;rounded=0;orthogonalLoop=1;jettySize=auto;html=1;exitX=0;exitY=0.5;exitDx=0;exitDy=0;entryX=1;entryY=0.5;entryDx=0;entryDy=0;dashed=1;" edge="1" parent="1" source="vDtjlmSr-5Rd0RSbNLYA-20" target="vDtjlmSr-5Rd0RSbNLYA-4">
          <mxGeometry relative="1" as="geometry" />
        </mxCell>
        <mxCell id="vDtjlmSr-5Rd0RSbNLYA-17" style="edgeStyle=orthogonalEdgeStyle;rounded=0;orthogonalLoop=1;jettySize=auto;html=1;exitX=0;exitY=0.5;exitDx=0;exitDy=0;entryX=1;entryY=0.5;entryDx=0;entryDy=0;dashed=1;" edge="1" parent="1" source="vDtjlmSr-5Rd0RSbNLYA-20" target="vDtjlmSr-5Rd0RSbNLYA-3">
          <mxGeometry relative="1" as="geometry" />
        </mxCell>
        <mxCell id="vDtjlmSr-5Rd0RSbNLYA-18" value="1:1" style="edgeLabel;html=1;align=center;verticalAlign=middle;resizable=0;points=[];fontSize=14;" vertex="1" connectable="0" parent="vDtjlmSr-5Rd0RSbNLYA-17">
          <mxGeometry x="-0.6941" relative="1" as="geometry">
            <mxPoint x="-19" as="offset" />
          </mxGeometry>
        </mxCell>
        <mxCell id="vDtjlmSr-5Rd0RSbNLYA-20" value="&lt;b&gt;Thuộc tính&lt;/b&gt;&lt;div&gt;electricity: Integer&lt;br&gt;entity: String&lt;br&gt;hour: Integer&lt;br&gt;month: Integer&lt;br&gt;year: Integer&lt;br&gt;code: String&lt;/div&gt;" style="rounded=0;whiteSpace=wrap;html=1;fillColor=#FFFFFF;strokeColor=#000000;fontColor=#000000;strokeWidth=1;fontSize=16;" vertex="1" parent="1">
          <mxGeometry x="510" y="570" width="150" height="150" as="geometry" />
        </mxCell>
        <mxCell id="vDtjlmSr-5Rd0RSbNLYA-21" value="HydroMonth" style="shape=rectangle;whiteSpace=wrap;html=1;fillColor=#FFFFFF;strokeColor=#000000;fontColor=#000000;strokeWidth=1;fontSize=16;" vertex="1" parent="1">
          <mxGeometry x="320" y="510" width="100" height="30" as="geometry" />
        </mxCell>
        <mxCell id="vDtjlmSr-5Rd0RSbNLYA-22" value="WindMonth" style="shape=rectangle;whiteSpace=wrap;html=1;fillColor=#FFFFFF;strokeColor=#000000;fontColor=#000000;strokeWidth=1;fontSize=16;" vertex="1" parent="1">
          <mxGeometry x="320" y="460" width="100" height="30" as="geometry" />
        </mxCell>
        <mxCell id="vDtjlmSr-5Rd0RSbNLYA-23" value="SolarMonth" style="shape=rectangle;whiteSpace=wrap;html=1;fillColor=#FFFFFF;strokeColor=#000000;fontColor=#000000;strokeWidth=1;fontSize=16;" vertex="1" parent="1">
          <mxGeometry x="320" y="410" width="100" height="30" as="geometry" />
        </mxCell>
        <mxCell id="hLbwp5NbZXMHT625sPss-32" style="edgeStyle=orthogonalEdgeStyle;rounded=0;orthogonalLoop=1;jettySize=auto;html=1;exitX=0;exitY=0.5;exitDx=0;exitDy=0;entryX=1;entryY=0.5;entryDx=0;entryDy=0;dashed=1;" edge="1" parent="1" source="hLbwp5NbZXMHT625sPss-1" target="vDtjlmSr-5Rd0RSbNLYA-22">
          <mxGeometry relative="1" as="geometry" />
        </mxCell>
        <mxCell id="hLbwp5NbZXMHT625sPss-33" style="edgeStyle=orthogonalEdgeStyle;rounded=0;orthogonalLoop=1;jettySize=auto;html=1;exitX=0;exitY=0.5;exitDx=0;exitDy=0;entryX=1;entryY=0.5;entryDx=0;entryDy=0;dashed=1;" edge="1" parent="1" source="hLbwp5NbZXMHT625sPss-1" target="vDtjlmSr-5Rd0RSbNLYA-23">
          <mxGeometry relative="1" as="geometry" />
        </mxCell>
        <mxCell id="hLbwp5NbZXMHT625sPss-34" style="edgeStyle=orthogonalEdgeStyle;rounded=0;orthogonalLoop=1;jettySize=auto;html=1;exitX=0;exitY=0.5;exitDx=0;exitDy=0;entryX=1;entryY=0.5;entryDx=0;entryDy=0;dashed=1;" edge="1" parent="1" source="hLbwp5NbZXMHT625sPss-1" target="vDtjlmSr-5Rd0RSbNLYA-21">
          <mxGeometry relative="1" as="geometry" />
        </mxCell>
        <mxCell id="Kdm3Ilhifyw4hB0R2YE9-8" value="&lt;font style=&quot;font-size: 14px;&quot;&gt;1:1&lt;/font&gt;" style="edgeLabel;html=1;align=center;verticalAlign=middle;resizable=0;points=[];" vertex="1" connectable="0" parent="hLbwp5NbZXMHT625sPss-34">
          <mxGeometry x="-0.7" y="1" relative="1" as="geometry">
            <mxPoint x="-19" y="-1" as="offset" />
          </mxGeometry>
        </mxCell>
        <mxCell id="hLbwp5NbZXMHT625sPss-1" value="&lt;b&gt;Thuộc tính&lt;/b&gt;&lt;div&gt;electricity: Float&lt;br&gt;entity: String&lt;div&gt;month: Interger&lt;br&gt;year: Integer&lt;br&gt;code: String&lt;/div&gt;&lt;/div&gt;" style="rounded=0;whiteSpace=wrap;html=1;fillColor=#FFFFFF;strokeColor=#000000;fontColor=#000000;strokeWidth=1;fontSize=16;" vertex="1" parent="1">
          <mxGeometry x="510" y="410" width="150" height="130" as="geometry" />
        </mxCell>
        <mxCell id="hLbwp5NbZXMHT625sPss-8" value="HydroYear" style="shape=rectangle;whiteSpace=wrap;html=1;fillColor=#FFFFFF;strokeColor=#000000;fontColor=#000000;strokeWidth=1;fontSize=16;" vertex="1" parent="1">
          <mxGeometry x="320" y="340" width="100" height="30" as="geometry" />
        </mxCell>
        <mxCell id="hLbwp5NbZXMHT625sPss-9" value="WindYear" style="shape=rectangle;whiteSpace=wrap;html=1;fillColor=#FFFFFF;strokeColor=#000000;fontColor=#000000;strokeWidth=1;fontSize=16;" vertex="1" parent="1">
          <mxGeometry x="320" y="290" width="100" height="30" as="geometry" />
        </mxCell>
        <mxCell id="hLbwp5NbZXMHT625sPss-10" value="SolarYear" style="shape=rectangle;whiteSpace=wrap;html=1;fillColor=#FFFFFF;strokeColor=#000000;fontColor=#000000;strokeWidth=1;fontSize=16;" vertex="1" parent="1">
          <mxGeometry x="320" y="240" width="100" height="30" as="geometry" />
        </mxCell>
        <mxCell id="Kdm3Ilhifyw4hB0R2YE9-2" style="edgeStyle=orthogonalEdgeStyle;rounded=0;orthogonalLoop=1;jettySize=auto;html=1;exitX=0;exitY=0.5;exitDx=0;exitDy=0;entryX=1;entryY=0.5;entryDx=0;entryDy=0;dashed=1;" edge="1" parent="1" source="Kdm3Ilhifyw4hB0R2YE9-1" target="hLbwp5NbZXMHT625sPss-9">
          <mxGeometry relative="1" as="geometry" />
        </mxCell>
        <mxCell id="Kdm3Ilhifyw4hB0R2YE9-3" style="edgeStyle=orthogonalEdgeStyle;rounded=0;orthogonalLoop=1;jettySize=auto;html=1;exitX=0;exitY=0.5;exitDx=0;exitDy=0;entryX=1;entryY=0.5;entryDx=0;entryDy=0;dashed=1;" edge="1" parent="1" source="Kdm3Ilhifyw4hB0R2YE9-1" target="hLbwp5NbZXMHT625sPss-10">
          <mxGeometry relative="1" as="geometry" />
        </mxCell>
        <mxCell id="Kdm3Ilhifyw4hB0R2YE9-4" style="edgeStyle=orthogonalEdgeStyle;rounded=0;orthogonalLoop=1;jettySize=auto;html=1;exitX=0;exitY=0.5;exitDx=0;exitDy=0;entryX=1;entryY=0.5;entryDx=0;entryDy=0;dashed=1;" edge="1" parent="1" source="Kdm3Ilhifyw4hB0R2YE9-1" target="hLbwp5NbZXMHT625sPss-8">
          <mxGeometry relative="1" as="geometry" />
        </mxCell>
        <mxCell id="Kdm3Ilhifyw4hB0R2YE9-6" value="&lt;font style=&quot;font-size: 14px;&quot;&gt;1:1&lt;/font&gt;" style="edgeLabel;html=1;align=center;verticalAlign=middle;resizable=0;points=[];" vertex="1" connectable="0" parent="Kdm3Ilhifyw4hB0R2YE9-4">
          <mxGeometry x="-0.6857" relative="1" as="geometry">
            <mxPoint x="-18" as="offset" />
          </mxGeometry>
        </mxCell>
        <mxCell id="Kdm3Ilhifyw4hB0R2YE9-1" value="&lt;b&gt;Thuộc tính&lt;/b&gt;&lt;div&gt;electricity: Float&lt;br&gt;entity: String&lt;div&gt;month: Interger&lt;br&gt;code: String&lt;/div&gt;&lt;/div&gt;" style="rounded=0;whiteSpace=wrap;html=1;fillColor=#FFFFFF;strokeColor=#000000;fontColor=#000000;strokeWidth=1;fontSize=16;" vertex="1" parent="1">
          <mxGeometry x="510" y="240" width="150" height="130" as="geometry" />
        </mxCell>
      </root>
    </mxGraphModel>
  </diagram>
  <diagram id="XD7pDVcnRPgiE9-cpN26" name="Page-7">
    <mxGraphModel dx="1426" dy="777" grid="1" gridSize="10" guides="1" tooltips="1" connect="1" arrows="1" fold="1" page="1" pageScale="1" pageWidth="827" pageHeight="1169" math="0" shadow="0">
      <root>
        <mxCell id="0" />
        <mxCell id="1" parent="0" />
        <mxCell id="oyWHfFhbeHiSYxjrt3XH-4" style="edgeStyle=orthogonalEdgeStyle;rounded=0;orthogonalLoop=1;jettySize=auto;html=1;exitX=1;exitY=0.5;exitDx=0;exitDy=0;entryX=0;entryY=0.5;entryDx=0;entryDy=0;endArrow=ERoneToMany;endFill=0;" edge="1" parent="1" source="x-ZjzEXfA9l23I0DQIMS-1" target="0Nzm-JlqZq2wRADM69Gb-1">
          <mxGeometry relative="1" as="geometry" />
        </mxCell>
        <mxCell id="SPOORT0liO7U39MO8KMj-1" value="N:1" style="edgeLabel;html=1;align=center;verticalAlign=middle;resizable=0;points=[];fontSize=14;" vertex="1" connectable="0" parent="oyWHfFhbeHiSYxjrt3XH-4">
          <mxGeometry x="-0.0727" y="1" relative="1" as="geometry">
            <mxPoint as="offset" />
          </mxGeometry>
        </mxCell>
        <mxCell id="x-ZjzEXfA9l23I0DQIMS-1" value="CityConsumption" style="shape=rectangle;whiteSpace=wrap;html=1;fillColor=#FFFFFF;strokeColor=#000000;fontColor=#000000;strokeWidth=1;fontSize=16;" vertex="1" parent="1">
          <mxGeometry x="130" y="290" width="190" height="30" as="geometry" />
        </mxCell>
        <mxCell id="oyWHfFhbeHiSYxjrt3XH-2" style="edgeStyle=orthogonalEdgeStyle;rounded=0;orthogonalLoop=1;jettySize=auto;html=1;exitX=0.5;exitY=0;exitDx=0;exitDy=0;entryX=0.5;entryY=1;entryDx=0;entryDy=0;dashed=1;" edge="1" parent="1" source="x-ZjzEXfA9l23I0DQIMS-2" target="x-ZjzEXfA9l23I0DQIMS-1">
          <mxGeometry relative="1" as="geometry" />
        </mxCell>
        <mxCell id="x-ZjzEXfA9l23I0DQIMS-2" value="&lt;b&gt;Thuộc tính&lt;/b&gt;&lt;div&gt;day: Integer&lt;br&gt;month: Integer&lt;br&gt;year: Integer&lt;br&gt;production: Integer&lt;/div&gt;" style="rounded=0;whiteSpace=wrap;html=1;fillColor=#FFFFFF;strokeColor=#000000;fontColor=#000000;strokeWidth=1;fontSize=16;" vertex="1" parent="1">
          <mxGeometry x="130" y="370" width="190" height="110" as="geometry" />
        </mxCell>
        <mxCell id="0Nzm-JlqZq2wRADM69Gb-1" value="TotalConsumption" style="shape=rectangle;whiteSpace=wrap;html=1;fillColor=#FFFFFF;strokeColor=#000000;fontColor=#000000;strokeWidth=1;fontSize=16;" vertex="1" parent="1">
          <mxGeometry x="470" y="290" width="180" height="30" as="geometry" />
        </mxCell>
        <mxCell id="oyWHfFhbeHiSYxjrt3XH-3" style="edgeStyle=orthogonalEdgeStyle;rounded=0;orthogonalLoop=1;jettySize=auto;html=1;exitX=0.5;exitY=0;exitDx=0;exitDy=0;entryX=0.5;entryY=1;entryDx=0;entryDy=0;dashed=1;" edge="1" parent="1" source="0Nzm-JlqZq2wRADM69Gb-2" target="0Nzm-JlqZq2wRADM69Gb-1">
          <mxGeometry relative="1" as="geometry" />
        </mxCell>
        <mxCell id="0Nzm-JlqZq2wRADM69Gb-2" value="&lt;b&gt;Thuộc tính&lt;/b&gt;&lt;br&gt;month: Integer&lt;br&gt;year: Integer&lt;br&gt;totalProduction: Integer" style="rounded=0;whiteSpace=wrap;html=1;fillColor=#FFFFFF;strokeColor=#000000;fontColor=#000000;strokeWidth=1;fontSize=16;" vertex="1" parent="1">
          <mxGeometry x="470" y="370" width="180" height="110" as="geometry" />
        </mxCell>
      </root>
    </mxGraphModel>
  </diagram>
</mxfile>
